# xmcd CD database file
#
# Track frame offsets:
#	187
#	25850
#	45345
#	68575
#	92290
#	119567
#	135150
#	155907
#	175257
#	193590
#
# Disc length: 2853 seconds
#
# Revision: 4
# Processed by: cddbd v1.5.2PL0 Copyright (c) Steve Scherf et al.
# Submitted via: CDex 1.70beta2
#
DISCID=780b230a
DTITLE=聖飢魔II - NEWS
DYEAR=1997
DGENRE=ヘヴィメタル
TTITLE0=DEPARTURE TIME
TTITLE1=真昼の月 ～MOON AT MID DAY～
TTITLE2=デジタリアン･ラプソディ
TTITLE3=BRAND NEW SONG
TTITLE4=火の鳥 ～FIRE BIRD～
TTITLE5=NO GOOD NEWS TODAY
TTITLE6=CRIMSON RED
TTITLE7=虚空の迷宮 ～type β～
TTITLE8=DANGEROUS VOYAGE ～失楽園への旅～
TTITLE9=SAVE YOUR SOUL ～美しきクリシェに背をむけて～
EXTD=YEAR: 1997
EXTT0=
EXTT1=
EXTT2=
EXTT3=
EXTT4=
EXTT5=
EXTT6=
EXTT7=
EXTT8=
EXTT9=
PLAYORDER=
